/* XPM */
static char *result[] = {
/* columns rows colors chars-per-pixel */
"32 32 128 2 ",
"   c #8C8176",
".  c #7A7066",
"X  c #5D554C",
"o  c #7A6E64",
"O  c #645B52",
"+  c #6F665C",
"@  c #6B6259",
"#  c #A69B90",
"$  c #605750",
"%  c #867E78",
"&  c #897E72",
"*  c #9D9389",
"=  c #7C7369",
"-  c #998A7B",
";  c #695D51",
":  c #716960",
">  c #695F56",
",  c #524940",
"<  c #71675E",
"1  c #7F756B",
"2  c #776C62",
"3  c #665E58",
"4  c #6F6457",
"5  c #7E7468",
"6  c #877C71",
"7  c #A6998B",
"8  c #625950",
"9  c #867A6D",
"0  c #827A73",
"q  c #6D6155",
"w  c #5A524B",
"e  c #9B8E82",
"r  c #81776D",
"t  c #9A8F85",
"y  c #766A5E",
"u  c #857C74",
"i  c #4D453D",
"p  c #958B82",
"a  c #978D83",
"s  c #948679",
"d  c #ACA095",
"f  c #595049",
"g  c #62564A",
"h  c #726A63",
"j  c #8F857A",
"k  c #8D7F70",
"l  c #746659",
"z  c #B5AAA0",
"x  c #A49689",
"c  c #564D44",
"v  c #D8B145",
"b  c #6B635D",
"n  c #746C66",
"m  c #9D8E7F",
"M  c #83776A",
"N  c #7C6E5C",
"B  c #776F67",
"V  c #A1988F",
"C  c #D1B568",
"Z  c #A79D93",
"A  c #5E5349",
"S  c #A0958A",
"D  c #A39383",
"F  c #928373",
"G  c #F0CF50",
"H  c #93887C",
"J  c #F4D54C",
"K  c #E7C03E",
"L  c #AC9D8F",
"P  c #8F867E",
"I  c #8B8279",
"U  c #FBE75D",
"Y  c #F3D65D",
"T  c #E8CB5C",
"R  c #F4DB56",
"E  c #F1D456",
"W  c #98908A",
"Q  c #AEA49A",
"!  c #938880",
"~  c #E9C14D",
"^  c #E7BC49",
"/  c #F5DF60",
"(  c #DFB74D",
")  c #E8C94A",
"_  c #F7DB4B",
"`  c #C2B8AC",
"'  c #CEAB49",
"]  c #918362",
"[  c #927F4D",
"{  c #827363",
"}  c #D2B259",
"|  c #DBC557",
" . c #BBB1A6",
".. c #A99462",
"X. c #9C8C64",
"o. c #DCB73F",
"O. c #A19172",
"+. c #EDD279",
"@. c #F2D974",
"#. c #C0A14E",
"$. c #C0A660",
"%. c #AA997A",
"&. c #E9BE55",
"*. c #B29D6A",
"=. c #AF9E80",
"-. c #BDA574",
";. c #9E8D70",
":. c #B6A583",
">. c #B8A157",
",. c #413831",
"<. c #B2A292",
"1. c #BFAB6D",
"2. c #B5A894",
"3. c #C9B178",
"4. c #4F4237",
"5. c #B0986B",
"6. c #D3BC76",
"7. c #BBAC9E",
"8. c #A99451",
"9. c #CBC4BC",
"0. c #D6B956",
"q. c #C1AE81",
"w. c #E4C87F",
"e. c #E4CE71",
"r. c #E1C88E",
"t. c #B5A43C",
"y. c #706A3F",
"u. c #8B7B6B",
/* pixels */
"< V Q I   x 5   # n Z ` S 1 H 1 @ e j ; g ; g $ 3 + 4 g O # < + ",
"B 2.d s o   o x D > h * x @ 8 & t : % w > h O > # Z   w u > $ & ",
"5 w 9 $ @ = + M , X a 2 @ 3 y <.z h   @ z 9. .$ 9 j < I ` Z 4 k ",
"@ c c . r d . i & + e - a 7 @ l + + M 8 = V * r . B # 6 S b f l ",
"u.;   x 0 M , f 2 f > < q { g 4 . 0 u 0 W 0 + O h =   $ , l { w ",
"; X < . < X 0 r W P f & S . f B O [ >.C 6.q.0 * Z W # : , { ; i ",
"V S : t . = @ $ p ! > L <.0 - C ) _ _ _ J ) #.j j   % @ 0 X f W ",
"  o X 7.x c B 6 B , o k $ [ ) _ J E Y E G ~ ~ [ n u 0 . ` d : 7 ",
"u H @ 2 4 t   & m o 7 Q *.J _ G Y G 0.$.$.C C C X.a - M j a n @ ",
"d   N N i 5 < k k O H %.G J G E } %.# % h < t 7.k i 2 2 f p z ! ",
"6 n N >.* t O = r < O C R E T *.p p S . Z h g =   3 1 z j e d < ",
"j V 6.T 2.p   x 7   H | J T O.: x 5 + 8 H 7 b o F 6 6 & H $ r b ",
"e %.Y J 1.% * 9 X $   ] ..9 & q o c 5 S 2 . @ 3 A - - f @ 3 d p ",
"2 -./ E | 7 e 5 j h l   = A 4 i & 9 9 7 s X # d O q > P 7 q S # ",
"w X.U E Y :.b r d : , F k > & 5 = 6 9 m D   z * I B > L 9 i r j ",
"o ] U R Y r.t : > M o q g A D L   $ 8 y F 1 d   c > y g . u ,.o ",
"8 g @.U R @.2.% V l l , , 4.,.+ H o $ o 4 + @ . @ M 5 X x N c h ",
"d P 3.U U / e.=.z b A c , 4.$ % 9 k 4 7 # > u  .6 A 1 n ..8.p I ",
"j & ; +./ / / U +.;.k & . i u L   g ,.- D O p S 3 X W :.| >.s < ",
"= X = =.@.Y R R | [ 4 k e 0 I 2 o > n . ; a B = Q % ] R ) #.H % ",
"& X 2 ! :.+.T ) ' 4 M 1 c F F , h * z a X 7 o m * L T G o.' D W ",
"p * 5 i & m ] O.O.; 2 N 8 8 O 0 H - & 6 X o c 3 ;.T J K v ' { , ",
" .# + : * p b % * . c 5 - : t <.> o ! d B I 5 *.~ G o.v v #.Z 1 ",
"r a ! u a j + 5 L - ; y q O D D l s -.1...$.} ~ ^ o.v ( v X.u O ",
"3 t ` . u @ r P y q < r 6 X l l f 8.K K K v ' v v ( ( v 5.* 8 + ",
"< , . r # 2 o e r X L m s   # + ; y.t.K K ~ ^ ^ ^ ^ ( 5.$ , q 9 ",
"O t - O 2 2 w X X X . F l O e & s 1.} } ( ^ &.&.&.C =.1 y V 2 c ",
"s m D > = m A ; 5 9 y g 4 j = c o - ..C w.3.-.;.4 1 < : = z Z 8 ",
"l k N b & g $ n i < F w * m y % 1 ; % b Q % h V = 8 s m y t p f ",
"1 2 f 7 # $ 7 x n : A e - $ 3 # * B - M u a t  .# > - - y w a 0 ",
"Z x 6 6   q F q 9 e w & : P t y M > 8 O w 8 1 ` * $ @ N q 3 t I ",
"* j < X : . O 3 < l . b r # V u 3 V z   y N @ Q P a Z o 3 z X , "
};
