/* XPM */
static char *result[] = {
/* columns rows colors chars-per-pixel */
"32 32 188 2 ",
"   c #2E2C2A",
".  c #36312C",
"X  c #3B3734",
"o  c #413C38",
"O  c #423B35",
"+  c #765B17",
"@  c #4C443D",
"#  c #4F483F",
"$  c #45413D",
"%  c #51463C",
"&  c #54483C",
"*  c #4A4541",
"=  c #4F4840",
"-  c #494847",
";  c #534B44",
":  c #594E43",
">  c #554F48",
",  c #5C5247",
"<  c #56514B",
"1  c #5B534B",
"2  c #565451",
"3  c #5B5752",
"4  c #5E5953",
"5  c gray37",
"6  c #62574B",
"7  c #64594E",
"8  c #6A5C4D",
"9  c #625344",
"0  c #635B53",
"q  c #695F54",
"w  c #625E5A",
"e  c #7F704A",
"r  c #6C6155",
"t  c #66615D",
"y  c #6C645B",
"u  c #716356",
"i  c #72675C",
"p  c #73685D",
"a  c #7A6B5C",
"s  c #605F60",
"d  c #5F6269",
"f  c #6C6865",
"g  c #6D6C6B",
"h  c #666566",
"j  c #746B63",
"k  c #796F64",
"l  c #706D6A",
"z  c #7C7166",
"x  c #7D746A",
"c  c #646771",
"v  c #696D77",
"b  c #737272",
"n  c #797877",
"m  c #7A7A7B",
"M  c #797776",
"N  c #916829",
"B  c #857039",
"V  c #927938",
"C  c #827464",
"Z  c #82766A",
"A  c #83786E",
"S  c #8B7C6D",
"D  c #857C73",
"F  c #897D72",
"G  c #9E8336",
"H  c #A98529",
"J  c #FC9F2D",
"K  c #F79D31",
"L  c #F89E34",
"P  c #CAA034",
"I  c #D1A330",
"U  c #EBA132",
"Y  c #FBAF3C",
"T  c #E6B539",
"R  c #EDBB3A",
"E  c #FBC433",
"W  c #FDC73B",
"Q  c #FEC93C",
"!  c #F4C037",
"~  c #87816E",
"^  c #8D8175",
"/  c #8C837B",
"(  c #8F8979",
")  c #928374",
"_  c #928679",
"`  c #95897D",
"'  c #9B8B7D",
"]  c #FBB242",
"[  c #FCBD45",
"{  c #CBAD61",
"}  c #FDC547",
"|  c #FECA44",
" . c #FFCC49",
".. c #FEC74A",
"X. c #FFD24B",
"o. c #FFD65D",
"O. c #FFE153",
"+. c #FCD363",
"@. c #FFDD69",
"#. c #FFD965",
"$. c #FFE174",
"%. c #FFE27C",
"&. c #838383",
"*. c #83858A",
"=. c #878889",
"-. c #8A8B8C",
";. c #8C8A87",
":. c #948B82",
">. c #9A8E82",
",. c #9C9185",
"<. c #9D938A",
"1. c #91908F",
"2. c #898D95",
"3. c #969696",
"4. c #97999C",
"5. c #999B9D",
"6. c #95979B",
"7. c #A29485",
"8. c #A3968A",
"9. c #A4988C",
"0. c #AB9C8E",
"q. c #A69C93",
"w. c #A99E92",
"e. c #ADA295",
"r. c #ACA39B",
"t. c #B1A395",
"y. c #B7AB9E",
"u. c #B6A99C",
"i. c #9E9FA2",
"p. c #9DA1A9",
"a. c #9EA4B1",
"s. c #A3A4A6",
"d. c #A8A7A7",
"f. c #A1A5AE",
"g. c #AAACAD",
"h. c #B5ACA1",
"j. c #B8ACA1",
"k. c #BBB2A9",
"l. c #ACAEB2",
"z. c #AFB4BF",
"x. c #B6B8BB",
"c. c #B9BBBD",
"v. c #B1B4B9",
"b. c #C8BC99",
"n. c #C4B6A9",
"m. c #C9BDB1",
"M. c #C2B9B1",
"N. c #FFE484",
"B. c #FFE08D",
"V. c #FFE897",
"C. c #FFEA9F",
"Z. c #FFF695",
"A. c #FFECB7",
"S. c #FFEFBD",
"D. c #FFF0BB",
"F. c #FFF4B5",
"G. c #AFB5C3",
"H. c #B8BDC7",
"J. c #BEC1C6",
"K. c #BCC1CC",
"L. c #C2C3C4",
"P. c #C1C5CC",
"I. c #C8CACC",
"U. c #CBCED3",
"Y. c #CDD1D6",
"T. c #D1D2D4",
"R. c #D2D6DB",
"E. c #DADBDB",
"W. c #F9EDCA",
"Q. c #FFF3C2",
"!. c #FDF5DD",
"~. c #D7DAE0",
"^. c #D9DDE3",
"/. c #D9DEEA",
"(. c #DEE2E6",
"). c #E1E2E2",
"_. c #E2E6EC",
"`. c #E9EBEE",
"'. c #FFFEE6",
"]. c #FBF5E4",
"[. c #E9EDF3",
"{. c #EEF2F9",
"}. c #ECF0F6",
"|. c #F4F5F5",
" X c #F3F6FD",
".X c #F6FAFF",
"XX c #FEFEFE",
"oX c #F9F8F5",
/* pixels */
"y q.t.^ ^ 9.x ^ e.k d.m.q.y ^ y 4 g q 7 6 8 6 1 q y r 1 0 w.y y ",
"j y.e.` j ^ x 7.S ; 1 F t b t ;. XXXI.* y z 0 r e.q./ > D q 6 ^ ",
"x : S 1 t x : t n E.m x.T.XXXXXXXXXXXX3.4 k.M.1 A / y / M.r.y ^ ",
"y ; ; k F >.n XXXXXXXXXXXXXXXXXXXXXXXXL.s.&.w x x j w.D 8.y : u ",
") 8 ) 8.^ , d.XX.XXXoXXXXXXXXXXXXXXXXXXXXXXX).; y x ^ 6 # i C , ",
"6 , p k y t |.XXXXXXXXXXXXXXXXXXXXXXXXXX.XXXXX3.w q.q.f % C 8 % ",
"9.9.i 7.0 T.XX.XXXXXXXXXXXXXXXXXXXXXXXXXXXXXXXXXf F / w D , > <.",
"^ k , n.A x.XXXXXXXXXXXXXXXXXXXXXXXXXXXXXXXXXXXXM j D k k.r.f 0.",
"A ` r i l .XXXXXXXXXXXXXXXXXXXXXXXXXXXXXXX.XXXI.< ,.,.C / :.l r ",
"t./ C r X XXXXXXXXXXXXXXXXXXXXXXXX.XXXXXXXXXXXg < O 7 z : :.h.:.",
"F k 7 : 2 .XXXXXXXXXXXXXXXXXoXXXXXXXXXXX3.d.3.4. XY.g >.:.,.e.y ",
"_ w./ :./ / XXXXXXXXXXXXXXXXXXXX1.5.~ S N { v (..XXX[.h _ 1 x y ",
">.7.k Z 7.4 &..XXXXXXXXXXXE.v.;.H I T U J Z.z.b * l.XX=., y e.:.",
"Z ) y A , ,.0 |.XXXXXXXXXXx.+ T X.X.X.[ K N.f., , 3 XXp.x p <.w.",
"0 0 y ` j ` 1 =.XXXXXX.XXXl.P O.} ..X.] K %.z.j :.f [.x.1 & A / ",
"C j S ; ` y.>.  `.XXXXXXU.B  . .} | X.] K $.H.: 0 X _.J.1 / . x ",
"7 ; 8 r ; k w.. I.XXoX.XC R X.| X. .X.Y L $.L.> k * ^.U.y ^ j y ",
"e.,.6 y 8.D 1 w *..XXXH.G ..} X.} } X.] U @.L.D >.X ~.~.@ :.w.D ",
") ^ : _ 7.` 7 -.b.e ( V |  ...X.|  .X.] L @.I.t j X R.(.$ ` _ i ",
"x , F p p j 1 v F.E ! X. . .|  .X. . .] U #.R.3 y.j U._.@ ;.:.D ",
"F , j ,.j e.C c A.W  ... . .|  .} ..X.] U #.T.k w.4 [.R.2 <.<.,.",
";.8.Z $ ` ' 9 c A.W X. . . . .X.] } X.] L o.(.; , 4.XXl.F q.k * ",
"k.w.y f <.1.0 c D.W [ .. .X.| } X. .X.[ Y o.).d J.XX.X5 i t.t.x ",
"A :.` F :.` 7 c D.W .. ..... . . .| }  . .o.).4.XXR.b j / F F 0 ",
"0 >.m.k F t j *.W.E  . . . . . . .X. . .W +. Xh w > a q >.9.7 y ",
"p @ k A w.k i l XXB.| Q W | | Q Q W W | +.'./.. % r i k 6 * q S ",
"7 7.>.0 j z @ < 6.^.].Q.C.N.%.%.N.V.D.!._.f.-.m @ t.0.S j q.j : ",
"` ' 7.q z 7.= H.Y.&.2.a.G.K.P.P.H.G.a.2.*.g..XY.O ) q i x j.w.6 ",
"u S k q F 8 O ~.XX.X^.L.l.s.5.p.s.l.L.E. X.XXXU.* q _ 7.i >.>.> ",
"A j : w.w.q j 4..X.XXXXXXXXXXXXXXXXXXXXXXX.XI.h >.r ' ' p > :.D ",
"w.7.F F ) q ) % 2 6.x.R._.[.{.{.[.`.~.P.i.h ; h.q.1 q k q w <.F ",
"7.` i 1 i k 0 t y & < t < g g g g f l 4 9 u j k.D >.w.k 0 k.2 = "
};
