/* XPM */
static char *result[] = {
/* columns rows colors chars-per-pixel */
"32 32 201 2 ",
"   c #020202",
".  c #0D0503",
"X  c #06090B",
"o  c #0B0C0C",
"O  c #090807",
"+  c #120906",
"@  c #1A0B04",
"#  c #16110D",
"$  c #0B0C12",
"%  c #0E1615",
"&  c #141514",
"*  c #1C1C1A",
"=  c #16191A",
"-  c #0B110C",
";  c #230E09",
":  c #2C140A",
">  c #341B0C",
",  c #221711",
"<  c #241B14",
"1  c #2A1C14",
"2  c #261E1B",
"3  c #281F1C",
"4  c #311E14",
"5  c #17281C",
"6  c #3E2314",
"7  c #3F2A1E",
"8  c #372118",
"9  c #272017",
"0  c #0B1723",
"q  c #141B24",
"w  c #121B2A",
"e  c #17212B",
"r  c #1F2C37",
"t  c #1F2839",
"y  c #143025",
"u  c #282826",
"i  c #273A28",
"p  c #34312E",
"a  c #222D3B",
"s  c #23313D",
"d  c #353532",
"f  c #3A3936",
"g  c #3D3C39",
"h  c #41251A",
"j  c #442A1D",
"k  c #452E21",
"l  c #473022",
"z  c #5B3927",
"x  c #413E3A",
"c  c #66392B",
"v  c #68392B",
"b  c #1E5039",
"n  c #2D412C",
"m  c #284A32",
"M  c #2D5137",
"N  c #2E5338",
"B  c #38573B",
"V  c #364E34",
"C  c #42413E",
"Z  c #7C4E36",
"A  c #784C36",
"S  c #7E5037",
"D  c #7E5139",
"F  c #6C4532",
"G  c #1D3141",
"H  c #2B3C4A",
"J  c #263643",
"K  c #1F5743",
"L  c #205B46",
"P  c #36674B",
"I  c #3D7D5C",
"U  c #2D6C51",
"Y  c #2F526E",
"T  c #36546C",
"R  c #3D5E7B",
"E  c #3F7F60",
"W  c #494641",
"Q  c #554B42",
"!  c #5B534C",
"~  c #405F40",
"^  c #655C55",
"/  c #6A5F53",
"(  c #64584B",
")  c #446545",
"_  c #4C714E",
"`  c #52754E",
"'  c #487956",
"]  c #547D55",
"[  c #6C635A",
"{  c #6D6257",
"}  c #72685E",
"|  c #726659",
" . c #40586D",
".. c #435E76",
"X. c #48657E",
"o. c #746B63",
"O. c #7D7165",
"+. c #7D7369",
"@. c #6C6660",
"#. c #83543B",
"$. c #8A593F",
"%. c #925D43",
"&. c #8A5941",
"*. c #9E6649",
"=. c #976144",
"-. c #8D6C4E",
";. c #A26A4C",
":. c #AD6D4B",
">. c #A66949",
",. c #AF714E",
"<. c #B0714E",
"1. c #AA6F50",
"2. c #B37453",
"3. c #B77755",
"4. c #AF7151",
"5. c #83766A",
"6. c #847464",
"7. c #877C72",
"8. c #C37D59",
"9. c #3D8566",
"0. c #3F8869",
"q. c #59855B",
"w. c #428563",
"e. c #428B6A",
"r. c #42906E",
"t. c #469673",
"y. c #649A69",
"u. c #5BA87B",
"i. c #6FA26D",
"p. c #7AB47A",
"a. c #7EB97E",
"s. c #77B279",
"d. c #71AB74",
"f. c #8D8278",
"g. c #91857A",
"h. c #958677",
"j. c #B39169",
"k. c #CB835F",
"l. c #CD8560",
"z. c #D88D66",
"x. c #DC9168",
"c. c #DB9067",
"v. c #E7986C",
"b. c #EE9E71",
"n. c #F09F72",
"m. c #F2A174",
"M. c #FFA97A",
"N. c #4C6B85",
"B. c #567C9D",
"V. c #557FA2",
"C. c #55AA81",
"Z. c #71BB86",
"A. c #6993B6",
"S. c #6FD29C",
"D. c #68D3A1",
"F. c #7DEAB1",
"G. c #709CC2",
"H. c #6598C2",
"J. c #6EA5D2",
"K. c #76ADDC",
"L. c #7CABD3",
"P. c #73A4CE",
"I. c #77B1E2",
"U. c #978D82",
"Y. c #9C9287",
"T. c #A1968A",
"R. c #A4998F",
"E. c #A69788",
"W. c #A69C92",
"Q. c #83BF81",
"!. c #B3A79B",
"~. c #ADA195",
"^. c #B9AEA4",
"/. c #BDB2A7",
"(. c #C99C87",
"). c #C0B4A9",
"_. c #88C686",
"`. c #96DE98",
"'. c #87DF9F",
"]. c #9AE299",
"[. c #80DDA1",
"{. c #8CEEAD",
"}. c #9AEDA4",
"|. c #8EF1AE",
" X c #8AF6B7",
".X c #95FBB7",
"XX c #A4F3A6",
"oX c #ACFDAD",
"OX c #A9F5A6",
"+X c #A2FDB2",
"@X c #B3FFB2",
"#X c #CCC0B4",
"$X c #80B3DD",
"%X c #82BCED",
"&X c #8EFFC1",
"*X c #9BDCFF",
"=X c #89C8FB",
"-X c #A1E1FF",
";X c #A9EEFF",
":X c #ADF2FF",
">X c #B4FBFF",
/* pixels */
"[ R.!.f.7.T.O.g.~.} W./.Y.O.Y.7.^ Y.Y.{ / | / ! ^ | / ( [ ~.} o.",
"g 2 * - & & o & & - % = = X o     O o   O X .   -         & O W ",
"+.  z 2.< F :.*.*.;.*.*.*.;.*.>.;.>.*.;.;.;.;.;.*.4.F 1 3.z 2 +.",
"} u $.M.l h v c v v c c c c c c c c c c c c c c c F 7 k M.#.u 6.",
"h.u D b.j y M m m m m N B N M M M M m B N m m m m M 5 j b.#.u ^ ",
"| * #.m.h t.+XXXXXXXoXy.n '.g.p._.s.s.i Q.oXOXOXXXoXd.7 b.#.% F ",
"!.g S m.h e.}.].].].XXn 5 m ~ ` ] ) B   i }.].`.].}.y.7 b.D e R.",
"h.u D m.j e.+XP   ` OXM - B ` q.y.) _   i XX_   ) oXy.7 m.D d !.",
"h.f #.v.j.D.'.Q.i.Q.OXi i }.` V C ` B B 5 _._.i.Q.OXy.6 n.#.* o.",
"!.C #.v.-.S.F.{..X{..X) Z..X[.y y S.' X P |.|..X{..Xu.h m.D C R.",
"f.p #.b.4 K t.w.9.e.0.0.e.e.e.e.e.t.9.' e.e.e.0.9.r.L j n.Z g 5.",
"T.d #.b.k . : ; ;   ; 1   @ ; ; ; ; ;   : ;   ; ; : . k n.#.u O.",
"E.d Z m.h A 3.<.2.1 2.v.2 =.3.:.<.2.=.1 v.2.< 2.<.3.F k m.D C W.",
"h.p #.m.j   + . .   2.x.,   + . + +   , c.2.  + . +   k n.D x ^.",
"{ = #.m.h U Z.s.a.5 1.x.< r.p.p.Q.g.y.1 x.<.e C.s.Q.] h n.D d U.",
"f.# #.m.h u.&X X.Xi :.x.9 D. X.X X.XS.9 x.<.y &X|..XC.h n.#.& 5.",
"/ & $.n.k m w.' I % <.x.< P I w.9.w.U # x.,.% w.w.w.b j b.#.* O.",
"^.g D n.k 0 w . r X 2.x.# w a $ - r e , x.2.X r   q % j m.D d U.",
"h.x D n.4 I.$XK >Xs :.x.3 =X>XN.X.>X=X9 x.:.s >XH $XI.h m.D d +.",
"7.* #.n.h T T e B.0 <.x.2 ..B.J s A.R < x.1.= B.q T T j m.S d U.",
"g.u #.n.k 0 e - a X <.x., e s % - s e < x.3.X r X e 0 6 m.S f W.",
"R.d D n.6 J.L.J ;Xs :.x.2 %X:XX.X.:XI.9 x.:.s ;XH P.I.z b.#.u ! ",
"#Xx Z m.h A.G.s *Xr :.x.2 K.-X....-XK.9 x.:.r *XJ A.*X(.v.S x f.",
"g.d #.m.h H.G.s *Xa :.x.< K.-X....-XK.9 x.:.r *XJ A.K.F b.D p } ",
"o.p #.n.h P.L.H ;Xs >.x.2 %X;X....;X%X2 x.:.r ;XH L.J.> m.#.& O.",
"O.% #.n.h Y T 0 B.q <.x.< R A.a a A.R < x.1.= B.0 T Y j n.#.u h.",
"| p #.n.j . > 4 : . 2.x.< @ : > > : @ , x.2.. : 8 > . j n.#.* ( ",
"E.p Z n.j #.8.2.3.2 1.x.1 ;.8.<.3.3.;.< z.1.1 8.2.k.Z 7 n.Z f | ",
"6.d #.M.k &.x.k.z.4 3.v.1 2.z.l.l.z.4.1 v.2.4 z.l.x.&.k M.#.f { ",
"} # z 2.1 c *.%.=.@ D ;.# A %.%.=.=.A # ;.Z # %.&.=.z 1 3.z u o.",
"^ & & o o       o * O   & & % o   o * = o & & * & $ * o   & o g ",
"T.h.} ! } +.^ [ @.{ +.@.5.R.R.f.^ ~.).g.O.5./ ^.g.g.~.+.^ /.( C "
};
