/* XPM */
static char *result[] = {
/* columns rows colors chars-per-pixel */
"32 32 105 2 ",
"   c #796F66",
".  c #70655A",
"X  c #7E7469",
"o  c #675F57",
"O  c #615850",
"+  c #7D7166",
"@  c #756C64",
"#  c #A79A8E",
"$  c #645B52",
"%  c #898077",
"&  c #8F857B",
"*  c #72685D",
"=  c #756A5F",
"-  c #796C60",
";  c #6C6156",
":  c #877B6E",
">  c #A29990",
",  c #7F766C",
"<  c #5C534A",
"1  c #998F84",
"2  c #90999D",
"3  c #8C8278",
"4  c #988C80",
"5  c #827A71",
"6  c #504840",
"7  c #58514A",
"8  c #8D9699",
"9  c #838E92",
"0  c #A69D94",
"q  c #999087",
"w  c #857D74",
"e  c #6B635B",
"r  c #83776B",
"t  c #695D52",
"y  c #938A80",
"u  c #9D8F81",
"i  c #5D554D",
"p  c #99A0A2",
"a  c #A6ACB0",
"s  c #889194",
"d  c #6F6760",
"f  c #8A7E71",
"g  c #B3A89D",
"h  c #A49587",
"j  c #D7E2F7",
"k  c #DDE7F6",
"l  c #949C9E",
"z  c #9FA6AA",
"x  c #AFB4B7",
"c  c #9E9387",
"v  c #B1A395",
"b  c #667376",
"n  c #D8E0EC",
"m  c #788486",
"M  c #A9B0B5",
"N  c #90887D",
"B  c #574D44",
"V  c #6E7B7D",
"C  c #A0A4A4",
"Z  c #7F807C",
"A  c #AD9F92",
"S  c #9F948A",
"D  c #AAA198",
"F  c #8E8173",
"G  c #6A777A",
"H  c #7E898C",
"J  c #BAB2A9",
"K  c #A1978D",
"L  c #B2B6BA",
"P  c #63564A",
"I  c #928374",
"U  c #6F7E80",
"Y  c #636764",
"T  c #878885",
"R  c #90918E",
"E  c #B6BCC0",
"W  c #FBCA2F",
"Q  c #9A8A7B",
"!  c #A5A9AB",
"~  c #F7C12C",
"^  c #979793",
"/  c #A89B51",
"(  c #FFD835",
")  c #B8ACA0",
"_  c #968779",
"`  c #E6CB96",
"'  c #F7D953",
"]  c #C6BCB1",
"[  c #FEDC48",
"{  c #938D86",
"}  c #9CA3AF",
"|  c #797874",
" . c #6C6C68",
".. c #FED340",
"X. c #A4A6A6",
"o. c #E4E1B9",
"O. c #473E38",
"+. c #FFAB03",
"@. c #8C7842",
"#. c #C3CCD8",
"$. c #CCD7E4",
"%. c #FFB216",
"&. c #8F8A55",
"*. c #D2B376",
"=. c #BEC8D4",
/* pixels */
"* > v 3 3 h X 3 0 @ 0 ] S , N , e 1 & t P t P O o . . P $ # * d ",
"  g A _   F   h h o @ S K e $ w q d w < ; = $ o # 0 % 7 w o O f ",
"X < : O ; X . r 6 i 4 @ ; o = v g @ % e g ] J O 5 & d % ] 0 . f ",
"e B B   r A + 6 % . u Q 4 # ; . . e , O + K c r     > : S e B . ",
": t F h 5 r 6 7 - 7 o * ; + P ; + 3 I % K 3 d $ = X 3 O 6 * X < ",
"t i *   * i 5 , q & 7 % K   7 X < < < : c N X K 0 q # d 6 + t 6 ",
"K S * 1 + + ; O 4 y o A v : 3 1 = 1 c X @ y @ , y % w e 5 < 7 q ",
"F   i ) h B   w   6   f t @ + ; f g v & & q N 7 @ w 5 + J D d # ",
"w N ; - . 1 % : Q * h v % g v @ ; : - < $ + # J % 4 4 r & 1 @ e ",
"D 3 + . O.X = q 0 { D D : . = @ i @ q %   = Q ) 3 O.- @ 7 y g y ",
":   $ B q ^ p E x 9 x L C > : 5 > q K   #   5 { T Y | g & u A d ",
"& 0 & 3 J x a l z a a C ! L 0   S + . o 0 L 8 z x a 2 H N $ , e ",
"u h + q l l 2 #.n k j $.M p 2 w - B X 0 8 m G V 8 ! 8 8 b Y A y ",
"+ I e p z s n k n n n k k M p z 4 , { 2 m l p s U H p M 9 G > > ",
"$ O | x s =.k n j j j j n n p x q  .s 9 z 9 l a s V s x p b Z 3 ",
"X * ^ a s n j n ` ` o.o.j k M z R  .2 2 9 9 G 8 ! b V a a V Y - ",
"$ B Z s 2 k j ` +.~ ( ' n k E H Y G 8 9 E ! U m a V V 9 8 9 b * ",
"D y T z s k ` +.~ [ W ..' k M l V b 2 l 2 8 V s a U m p C H m 3 ",
"& f Y x H *.%.~ [ W [ W ..' ^ x K Y H 9 l m H C 8 b m x z G Z = ",
"X < w X.} @.W [ ~ ' W ..( / z M X o R s 2 C x p V b l L 9 G y % ",
"f i = R 8 8 &.~ ( ( ( W / 2 l Z @ c v C m U U U m 2 8 p b | S q ",
"y c , 6 Z M } Z / / / N } E X.% & Q : & C z 9 2 a x 2 b T # + 6 ",
"J # . d > ^ M E } 9 M L E ^ # A o   4 v X D R ! X.T T % X A A , ",
"r 4 N w 1 %  .Z C R R Z @ $ h c * I u I @ O * 4 4 X # 4 5 % f $ ",
"t 1 ]   5 e , & * . . r : i . * 6 ; $ e g 5 3 , X + f O y K O . ",
"* 6   r # @   u r i A u & % # e ; w &   v y t * B t .   O 6 ; : ",
"$ u Q $ @ @ < i i < + I . $ 1 f _ h h r 7 X > c e # # : = > = B ",
"_ u c o + 4 < t X : = P . & X B - Q t O y % g N o r . * X ) 0 O ",
". F - e f P O @ 6 * I 7 S u = % , t 3 d g 5 d > , O _ u = 1 y 7 ",
", - 7 # # O # h @ * < 1 Q O o # c   _ r w 1 q J > t Q Q - 7 { 5 ",
"0 K : : F ; I ; 5 u 7 f * N 1 = r o O $ < O , J S O e - ; o 1 3 ",
"c & * i *   $ o d .   e , 0 > w o K ) % - - ; g & 4 0   o ) i 6 "
};
