/* XPM */
static char *result[] = {
/* columns rows colors chars-per-pixel */
"32 32 27 1 ",
"  c #6D6359",
". c #A19589",
"X c #857B70",
"o c #71675D",
"O c #A69B90",
"+ c #695F56",
"@ c #90857A",
"# c #8E8275",
"$ c #796F65",
"% c #897E73",
"& c #9C9085",
"* c #655B52",
"= c #61574E",
"- c #756A5F",
"; c #5D544B",
": c #7D7267",
"> c #96897D",
", c #766C63",
"< c #988D82",
"1 c #7F756A",
"2 c #584F47",
"3 c #82776C",
"4 c #51483F",
"5 c #B5A99D",
"6 c #ADA094",
"7 c #BFB6AB",
"8 c #433B34",
/* pixels */
"oO6##.1#O,O7.1>1 <@*=+==+o =*Ooo",
"$56@$#$..+,.. *%&o%;+-*+OO%;X+=%",
"1;X=+: 34;<,++-65,% 577=X@o#7O %",
" 42$36:4%o<><O o  1=:..3$$OX. 2o",
"X+#.3342,2+o+:= :#@%.#o*-:#=4o1;",
"*;o$o;X3&@2%.$;:;;;X.@1.O&Oo4:*4",
"..-&::+=<>+66X#&-<.:,>,1>%% X;2&",
"#$;5.2$X$4$%*,:+%55@@&>2,%X:76oO",
"X>+- &#%&$O5#56,+X,;*:O7%<>3@<, ",
"6#: 81o%%*>.Xo-,;,&%$-&5@8,,2<5>",
"X$*2&&*:3o*1 #%3.&.$O-;:#+15@&6o",
"@O@@5>%.O#@12<@,.:o=>O ,#XX%>=3 ",
"<.$X>#&3;=@.1:#+$21.,: +;>>2 +6<",
":# 3=>&:@-o%3; 4%XX.@=O6* +@. .O",
"**o@$@o16-4#%*%1:XX<.#5&#$+6343@",
":-32@5<o+3$ =;.O#=*-#16#2+-;$X8$",
"*2*+2:.@. -4448o>$=$ o $ 3:;.X-o",
"6<=o&X=<7o;444=%X% OO+%7X;:1 @O%",
"@#;#.@o5&o@%:4XO#=8>&*<.+;.O,#>o",
":;X-o- -$2+#<X#,$+,$*<$:6#$6X%<%",
"%;,<,OX-@ 112#@4-&5<;.$<.O$ +&.&",
"<.14@>  -;,$=**X>>XX;$2 %> 26.:4",
"7O o&<o@O:41>-&6+$<5:@$#,*&<$661",
"3<>%<@o:O>*- *.&-#&#,*o<&1.>X%%*",
"*<7:X 3@-+o3X;o-4 *+5X#31$%*<.= ",
"o4$3O,$&3;6&@%O +%@$6>*o2+ $=4+X",
"*&>*,,;;=;$#o*<%>..321O& OOX-O-2",
">&.+:<;+1X-= @:2$>*=>%5>+3oo15O=",
"o#, %==,4o@;.<-%1+#o5XoO1=><-&>2",
"1,2OO=O.,-;<>=+O.$>3X<&7O+>>-2<X",
"O.XX# # X&;%-@<-3+=*;=17.= , +&#",
".@o;-$**oo: 3OOX+.5%-, 5@<O$+5;4"
};
