/* XPM */
static char *result[] = {
/* columns rows colors chars-per-pixel */
"32 32 256 2 ",
"   c #7A7065",
".  c #61584F",
"X  c #766B60",
"o  c #5A524A",
"O  c #6F6861",
"+  c #7E7367",
"@  c #8B8278",
"#  c #645B52",
"$  c #A79C91",
"%  c #A39A90",
"&  c #696159",
"*  c #6D6256",
"=  c #FAD864",
"-  c #887D71",
";  c #847C74",
":  c #827971",
">  c #73695D",
",  c #6F645A",
"<  c #70665D",
"1  c #877F75",
"2  c #998B7D",
"3  c #504942",
"4  c #ABA094",
"5  c #436278",
"6  c #FDDC67",
"7  c #FBDE6A",
"8  c #81776D",
"9  c #5E554C",
"0  c #978D84",
"q  c #918882",
"w  c #999084",
"e  c #405C71",
"r  c #496A82",
"t  c #675E56",
"y  c #9D8F81",
"u  c #FFE677",
"i  c #85796D",
"p  c #8E847B",
"a  c #8F8374",
"s  c #94877A",
"d  c #584F47",
"f  c #756D65",
"g  c #A49688",
"h  c #7A6E62",
"j  c #517690",
"k  c #FCD358",
"l  c #FEDF64",
"z  c #48677D",
"x  c #FCD057",
"c  c #918578",
"v  c #8F867D",
"b  c #6B635C",
"n  c #7A7169",
"m  c #7E746C",
"M  c #9F9387",
"N  c #8E8171",
"B  c #6A5E53",
"V  c #020204",
"C  c #A1968A",
"Z  c #B7ACA1",
"A  c #897A6B",
"S  c #665948",
"D  c #EDB63C",
"F  c #FCCC6A",
"G  c #FFD95E",
"H  c #A6998A",
"J  c #F7D05F",
"K  c #5D5650",
"L  c #6B6054",
"P  c #4E443A",
"I  c #BEB5AD",
"U  c #9B918A",
"Y  c #D9B25B",
"T  c #948B81",
"R  c #45403A",
"E  c #948F8B",
"W  c #554C42",
"Q  c #C3C5C6",
"!  c #537E9F",
"~  c #4C708A",
"^  c #5F8AAA",
"/  c #283E4F",
"(  c #F8CD52",
")  c #344C5E",
"_  c #385164",
"`  c #6795B8",
"'  c #405F76",
"]  c #E5AD3E",
"[  c #FDD55F",
"{  c #3E5667",
"}  c #726A63",
"|  c #F3BE5A",
" . c #746658",
".. c #EBB94E",
"X. c #847669",
"o. c #424543",
"O. c #635D57",
"+. c #3D3830",
"@. c #B9B2A9",
"#. c #726E6B",
"$. c #555858",
"%. c #A39485",
"&. c #AD9D8E",
"*. c #FFE16B",
"=. c #C8C9CC",
"-. c #6A5C4D",
";. c #A8946E",
":. c #D3A95A",
">. c #EBCF72",
",. c #93887D",
"<. c #1F2021",
"1. c #D8DADE",
"2. c #A7ADB3",
"3. c #233645",
"4. c #EBB44B",
"5. c #FDCC4D",
"6. c #385A72",
"7. c #5D85A3",
"8. c #FBC84A",
"9. c #CBA957",
"0. c #2D516F",
"q. c #7C766F",
"w. c #FAE06E",
"e. c #B39554",
"r. c #A69E96",
"t. c #7A674A",
"y. c #D4B788",
"u. c #CF9D42",
"i. c #A08D5E",
"p. c #FCD071",
"a. c #C7BBAC",
"s. c #8C8263",
"d. c #292723",
"f. c #E8BE6E",
"g. c #9C938B",
"h. c #987639",
"j. c #F8E074",
"k. c #D6C496",
"l. c #FFEB81",
"z. c #31302E",
"x. c #9FA4AA",
"c. c #657276",
"v. c #DFCFAC",
"b. c #454D53",
"n. c #141415",
"m. c #F5DD72",
"M. c #B5B7B7",
"N. c #D39C30",
"B. c #AFA397",
"V. c #B2A79D",
"C. c #91703C",
"Z. c #638FAF",
"A. c #F3C44C",
"S. c #8D9783",
"D. c #417098",
"F. c #FBC449",
"G. c #858D79",
"H. c #F3C045",
"J. c #334858",
"K. c #8A7552",
"L. c #6C7E7C",
"P. c #4A657A",
"I. c #7197B0",
"U. c #E4C68B",
"Y. c #6D5E4D",
"T. c #C6C1B8",
"R. c #C0AE89",
"E. c #DFA637",
"W. c #846D46",
"Q. c #4A6173",
"!. c #F6C952",
"~. c #E1A62F",
"^. c #C7B892",
"/. c #FFCE52",
"(. c #CABB9D",
"). c #626967",
"_. c #E8BF5C",
"`. c #FCC455",
"'. c #E7B035",
"]. c #566E7E",
"[. c #DAC190",
"{. c #E9CD92",
"}. c #C0C7D2",
"|. c #808A8A",
" X c #E8C964",
".X c #F4D28D",
"XX c #AA894B",
"oX c #FDE57E",
"OX c #202F38",
"+X c #D9BC6E",
"@X c #5F6461",
"#X c #A77E39",
"$X c #C9CED5",
"%X c #EBF0F7",
"&X c #978465",
"*X c #CFD4DE",
"=X c #D9B861",
"-X c #A97515",
";X c #976C19",
":X c #D8C375",
">X c #B39B71",
",X c #9A7F50",
"<X c #E8B961",
"1X c #FFD775",
"2X c #D6C980",
"3X c #C1C4C9",
"4X c #F9DE94",
"5X c #F5CB79",
"6X c #E0B769",
"7X c #B4A58C",
"8X c #7A5A3A",
"9X c #5A4F36",
"0X c #F2DEB9",
"qX c #9D9B97",
"wX c #C9B782",
"eX c #A8A9A9",
"rX c #3B6688",
"tX c #546F78",
"yX c #5A7284",
"uX c #DEAD54",
"iX c #CCAC69",
"pX c #FBC14E",
"aX c #DBAC45",
"sX c #152733",
"dX c #587991",
"fX c #C39A5C",
"gX c #090E12",
"hX c #A89160",
"jX c #E1D2BB",
"kX c #536772",
"lX c #D5D1C8",
"zX c #E6E9EC",
"xX c #E6C477",
"cX c #E8C462",
"vX c #ABAF93",
"bX c #0E1114",
"nX c #C89421",
"mX c #9E8F6E",
"MX c #C6AB84",
"NX c #D6CEBD",
"BX c #9EAD9F",
"VX c #F9E38F",
"CX c #FFE863",
"ZX c #829BA2",
"AX c #A26D0A",
"SX c #736541",
"DX c #E9D37F",
"FX c #9B896A",
"GX c #EFBE5E",
"HX c #B7A47C",
"JX c #6E808F",
"KX c #4B2118",
"LX c #F3D5A6",
"PX c #83A7BC",
"IX c #C38F3F",
"UX c #C19148",
/* pixels */
"O % B.@ @ g m a $   % r.; } v #.$.@ c L S Y.S . t < , 9 # H < < ",
"f V.4 s   N   g %.. K A K.t.i.W.W.t.f o.& X # t % $ 1 o ; & . - ",
"+ o A . & + , A P -.iX_.x x k [ /.`.Y &XU T.@.K i c O @ a.r., N ",
"* W W   : 4 + +.;.p.6 = = = k 5.!.!.5.F y.% U 8     % ; M b d  .",
"A B N g : i R mXl.w.w.7 6 J {.v.T.I ^.xX1Xy.& # } + @ . 3  .+ o ",
"-.9 >   > d C VXj.j.j.*.>.lX*Xx.@ 1 |.2.v.4X7XE $ w $ O 3 + -.P ",
"C C O w + O k.oXm.m.w.>.1.$Xs.h.#X-X;XSXx.0X{.@ v @ 1 & : 9 o E ",
"N h 9 Z %.d 4Xl.u u G v.1.a #XfXu.N.nX-Xt.Q LXB O 1 : n I 4 O H ",
"; ,.L X < ,.+X=XY 9.&XM.2.C.IXu.E.'.D D ;XeXE O.q 2 2 X.p 0 f & ",
"B.@   , R f z.<.<.n.b.M.x.C.UX:.6X5X:.h.8XqXeX8 q R X X o T V.q ",
";   # W w U * 9XP +.$.2.Q E eXQ 1.%XI KX8XZ 0XMX: & q.Z p y 4 < ",
"p $ p p Z q [.u = J Y 7X*X% qX3X1.zX%XI ;.3X.X[.i - - - ,.. 8 b ",
"y g   i 2 ; k.u 7 6 G _.Q =.,X;.a.jX[.e.@.NXp.y.d 2 2 o & t 4 T ",
"+ a , 8 . p k.u 7 6 = x Y =.Q i.h.XXhXM.=.f.F U.O.* B v H * C % ",
"# # < c n ; R.u 7 7 = [ 8.Y (.$X}.}.=.(.uX| F U.q f t &.i P 8 p ",
"+ X i d ,.B.^.u 7 l 6 [ x 8.D aX:.9.u.E.4.| F .X> . X 9   ; +.  ",
"# W -.B d X R.oX7 7 6 = k x ( H.'.~.] 4.4.| F f.#.8 + 9 %.i } < ",
"4 0 . < M m N *.*.7 6 = k ( A.H.D '.] ] ..| `.XXc.S n m , v $ 1 ",
"c a o a g c JXvX( l 7 = = ( J x 5.8.F.F.pX..e.c.HX. M $ f a s < ",
"+ o : X > , ; PXZX=X[ 6 G G k 5.A...9.e.s.)._ w 1X>Xf &.: 1 0 1 ",
"- 9 f 2   U wX6 BX` |.G.S.S.G.L.tXz 6.0.0.0.@X5XGX<X  , & w g.w ",
"T M m P s ,.>.x G 2XL.{ D.! D.rX' ) _ e ' 6.c.p.<X~.FX3 4 C n 3 ",
"@.$ , O E H J ] m.CX:X7.^ ^ j ~ J.3.3.e z 5 kX:.,XAX6Xq   4 4 m ",
"8 0 q 1 q wX..N.*.l >.I.` Z.7.r / / 3.{ z 5 z o.<.9Xf.y : 1 - # ",
"t 0 a.+ #.:XN.C.cX X+XI.` Z.! j _ / ) e 5 z r Q.d.R >XL T g . , ",
"> 3   i U DXJ i.$.].].7.` ^ ! ~ r 5 ' 6.5 z r dXb.R * h . 3 L A ",
"# y 2 t O ;.l. Xd.d.z.j ^ ! j ~ r r ' ' P.5 ' e #.&.&.A X % X d ",
"s y %.B + c Y.S o.+.o.j j ~ r P.Q.Q.{ _ ) J.$.n B X.< O m Z $ . ",
" .N h b - S K O W ).yXe Q.{ ) / b.OXOXsX@X: f r.q.. s y > w T o ",
"m X o % % . H g } > o v O bXV V & z.V gXq.M 0 @.% B 2 2 X o 0 : ",
"$ C - - N * a * i y o - <.V V n.* 3 V n.3 # m I g.. b h * & w @ ",
"M c > 9 >   # O.<  .n b K O @ @ b g.; O.> h * V.v 0 $ f t Z K 3 "
};
