/* XPM */
static char *result[] = {
/* columns rows colors chars-per-pixel */
"32 32 36 1 ",
"  c #242626",
". c #27292A",
"X c #2A2C2D",
"o c #2D2E31",
"O c #2F3033",
"+ c #323336",
"@ c #353639",
"# c #39373A",
"$ c #36393C",
"% c #393A3E",
"& c #3C3D42",
"* c #413E43",
"= c #3E4045",
"- c #3F4148",
"; c #414146",
": c #45444B",
"> c #49464D",
", c #47484E",
"< c #49494F",
"1 c #484750",
"2 c #474950",
"3 c #4C4C53",
"4 c #4F4F58",
"5 c #504E56",
"6 c #504F59",
"7 c #4F5057",
"8 c #4F5159",
"9 c #505057",
"0 c #52525B",
"q c #59575F",
"w c #575761",
"e c #595761",
"r c #5A5963",
"t c #5F5E69",
"y c #615F6B",
"u c #61616D",
/* pixels */
":>>*6606993<%333733O-337277-,+&:",
":>1&60067<<0%37000q@,q8083778$*:",
"#+#o;;;*==;=.;>==@@ &>;:,2-%;o%*",
":::*;&O$$%%;:33;OX@++$%$%&&+O=;>",
"w08000&030000qqt;O7<7<<73633,r0q",
"132213%3><3,733w:X<;>>,,333<=737",
":34233&4<3337707@+3>::,,><<3&387",
"233244&837887848@+7>>:::::,:&877",
"404004@034388832@O2,7<,:::3;@q00",
"%&&$@.o&@@+@@@oOoO%&=%O&%+$+O%++",
"43323&0324323,O8384338@033,389=@",
":>:1;&3:334833$8:2,;3q&0303<>3=@",
"331:;%83223333@033218w%3903333=X",
"eew4:+q6::3333&w033300O3q93339:X",
"yytrwOe000006w&0003430O7u090063X",
"&@&&& ::;&&&&@ooX+OooX @=;=%+O@X",
"1:11133O$:;&*#*X303:22:;=;;,@+33",
"8431330&:63<>>>#2w08333,<337;=03",
"83332:3&*63>>>>+-033:3,:,333:&79",
"3334312$:633>>>+;:233<333330,&33",
"3330838&:6433>>+=33088883333,;3<",
";:3:12:o*33333<@%&:::,,-,:<3%@3;",
"O.O+++ooOooO+oo.XX @%%$@ .X@X.OO",
",%3242233o&3:>3932&82,,8+3:<>:::",
"=%%&;;;;3+$:<<553<$,;;&;+,;:>::;",
"=&;;::3:3@;:<65390$<>:;:O,:;;::>",
";%;::1<>3@&:>>369q@<:>:;O3::;;>;",
";&3:3333q+;<;500rr@<3::;O33:>:>>",
"+O#+@&&%&Xo@X@%$$@.OOOOO .XXXX++",
"**>#:3340333O=;=;:3+=3,,:,:;>@:>",
":*5%8q0w0w0q@:3<<36+:2:,::::<#:>",
"*>3&3q00qq03@3<3333@&,,:::366+*>"
};
