/* XPM */
static char *result[] = {
/* columns rows colors chars-per-pixel */
"32 32 57 1 ",
"  c #4D443B",
". c #514538",
"X c #56493D",
"o c #544C44",
"O c #594E44",
"+ c #574F48",
"@ c #5C5147",
"# c #5D544C",
"$ c #5F5750",
"% c #60574D",
"& c #63594E",
"* c #6B5C4E",
"= c #645C53",
"- c #695E54",
"; c #675F58",
": c #6C6156",
"> c #676058",
", c #6D635B",
"< c #716357",
"1 c #71665C",
"2 c #74695E",
"3 c #796B5E",
"4 c #6E6760",
"5 c #746B62",
"6 c #796E63",
"7 c #7C7166",
"8 c #7D736A",
"9 c #7F7871",
"0 c #827466",
"q c #81766B",
"w c #84796E",
"e c #8B7C6E",
"r c #857C72",
"t c #8A7E73",
"y c #8C8175",
"u c #8D837A",
"i c #928476",
"p c #92867A",
"a c #94897D",
"s c #9A8C7E",
"d c #8F8881",
"f c #958C82",
"g c #9A8E82",
"h c #9D9185",
"j c #9D948A",
"k c #A19385",
"l c #A1968A",
"z c #A4998D",
"x c #AA9C8D",
"c c #A59C93",
"v c #AA9E92",
"b c #ADA296",
"n c #AEA49B",
"m c #B1A79D",
"M c #B3A99E",
"N c #B6ACA2",
"B c #BFB7AF",
/* pixels */
"5zbuyhqiz7cNj8uw4fp-*-&&;1:=;j5,",
"6vzi8y7hs:7hj4;tf5r#45>1jzu=r,=w",
"8=q-,810#=pq4;6lb5t4cBm>ru5rNz1w",
":+#7wj8@q1pppg15548;rjj868jrg1%1",
"0-es9q+@5%:527*16tttju5>58y>+<7%",
"<&285=89fu$rh7$5%&=rgu9jlhj4@3-X",
"hh5f87>;uu1zzeya6gg88u89dur48=#f",
"y7-xh$5r7#7t,771wvvuuau$8rr8mc5h",
"tp,62aryi3kxybz7,w7$:8lmruieuf84",
"lu3<o83yy:skw365>8fy77sMu+55=fnu",
"t7-%ff:8w2:01yrwhfh8j7*8y,9busz5",
"azuybfyhhtuq&ay7h75:uf,7ewrru>95",
"sh8eauhw-=yg80e:6#8s881,*pi&1,jg",
"wt18>as8t53eq=<@e9yhu,jz>,1ug,hc",
"--1y7u79h5@ew-eq7wwssybhr7,hw+8u",
"727=yvs55q3:&&iky>*3ywzy$>2=78 7",
">#**$qgul1<OX  5y7*71157467-aw51",
"za=2ar:fm5%OX.$rew>hl4tbr-875ujr",
"it=yhy6vh2ew6orjy* is,pg4=gl8pa6",
"7=8566,56%1eprt67,58:d8rztqjrrdu",
"w=5y8hw7e:q7&ee@5sxf-g8pkz654fhf",
"hf8#ya1,5&33=-:ryayw%6#1tp1%jj9+",
"Mj55ff5uh7#7i2sx20sx7u5u6:faqzz8",
"rffrfy4wli:31-gs2esi7:5ugqkaryr>",
",fMqy1ry6,2we=23O<:4crr706e<pg-1",
"2#8wh57uq=ksyrh41ru7zf44%:16=%-0",
">sa>73#=%&7e3:awikgq-8jh1kke5h6%",
"iss,0i%>6w2*1u8$0i,=duvd:w558bj=",
"3e7,w-=5+1e-fp5rq1r5cr8j9-is6gd%",
"w6=hh>gs55=yp:4ha6iqrffNj<ii5=dr",
"zhrey1e3wi=r6uf8q,-=#-9Nj>46:4pr",
"kp2&55;:12549zjr4jbu651bffj8,c;+"
};
