/* XPM */
static char *result[] = {
/* columns rows colors chars-per-pixel */
"32 32 204 2 ",
"   c #010304",
".  c #0A0A0B",
"X  c #110B0B",
"o  c #0D1319",
"O  c #1D1D1D",
"+  c #111015",
"@  c #240D06",
"#  c #250B0A",
"$  c #26110A",
"%  c #241106",
"&  c #251410",
"*  c #261A15",
"=  c #281D18",
"-  c #371A14",
";  c #24211E",
":  c #3B2A1B",
">  c #181C24",
",  c #1C2021",
"<  c #1C2C3C",
"1  c #282929",
"2  c #3C2A23",
"3  c #322925",
"4  c #36312D",
"5  c #282D31",
"6  c #3D3935",
"7  c #3A3B39",
"8  c #421912",
"9  c #5C1613",
"0  c #6D1D0F",
"q  c #751413",
"w  c #780D0B",
"e  c #5A2F15",
"r  c #5C3417",
"t  c #642B01",
"y  c #6D350A",
"u  c #723307",
"i  c #763C12",
"p  c #6A2A19",
"a  c #462621",
"s  c #472D2B",
"d  c #582B25",
"f  c #46322C",
"g  c #423020",
"h  c #512E30",
"j  c #493D36",
"k  c #672D2A",
"l  c #7A2A21",
"z  c #733B2E",
"x  c #6F3033",
"c  c #7D400E",
"v  c #72401E",
"b  c #5B442F",
"n  c #4C433B",
"m  c #53473D",
"M  c #66453F",
"N  c #7B4138",
"B  c #695039",
"V  c #7C543C",
"C  c #79492B",
"Z  c #7A6E30",
"A  c #626B38",
"S  c #293645",
"D  c #4C4641",
"F  c #464646",
"G  c #544B44",
"H  c #594E44",
"J  c #564F48",
"K  c #524741",
"L  c #5B5246",
"P  c #5B534B",
"I  c #58544C",
"U  c #525252",
"Y  c #5D5751",
"T  c #5E5851",
"R  c #50535B",
"E  c #675445",
"W  c #62564C",
"Q  c #6A544B",
"!  c #63594E",
"~  c #6C5C4D",
"^  c #755845",
"/  c #7D514A",
"(  c #745445",
")  c #645B53",
"_  c #6A5F54",
"`  c #635B56",
"'  c #785E58",
"]  c #6C6156",
"[  c #66605A",
"{  c #6C645B",
"}  c #736457",
"|  c #72675C",
" . c #73685E",
".. c #7A6C5E",
"X. c #6C6761",
"o. c #6F6962",
"O. c #6A6A68",
"+. c #756C63",
"@. c #7A6E64",
"#. c #736E6A",
"$. c #7B7066",
"%. c #7C736B",
"&. c #7D7A6D",
"*. c #7A7770",
"=. c #9C0C06",
"-. c #911F1C",
";. c #8D1310",
":. c #A62C1B",
">. c #A22817",
",. c #832A26",
"<. c #902925",
"1. c #84332E",
"2. c #973022",
"3. c #843837",
"4. c #903E3A",
"5. c #A52E20",
"6. c #A53622",
"7. c #844339",
"8. c #9B403A",
"9. c #885837",
"0. c #94562C",
"q. c #80602B",
"w. c #827A3B",
"e. c #996439",
"r. c #BF6128",
"t. c #B05510",
"y. c #D74C0C",
"u. c #8B4946",
"i. c #974A49",
"p. c #865849",
"a. c #845E55",
"s. c #8B625A",
"d. c #976A52",
"f. c #A47556",
"g. c #B77F5A",
"h. c #826A62",
"j. c #896B64",
"k. c #827365",
"l. c #8D7366",
"z. c #81766B",
"x. c #84796E",
"c. c #8A7C6D",
"v. c #987A6B",
"b. c #847C73",
"n. c #897E72",
"m. c #857F78",
"M. c #907F70",
"N. c #A16465",
"B. c #7D8B34",
"V. c #738F30",
"C. c #92834C",
"Z. c #86A159",
"A. c #81876B",
"S. c #8B9768",
"D. c #8C8175",
"F. c #8D847B",
"G. c #838178",
"H. c #928475",
"J. c #91867B",
"K. c #95897D",
"L. c #9A8C7D",
"P. c #9D8475",
"I. c #949576",
"U. c #B99374",
"Y. c #96A166",
"T. c #C09275",
"R. c #8C8B86",
"E. c #948B82",
"W. c #9A8E82",
"Q. c #9C9185",
"!. c #96918A",
"~. c #9C938A",
"^. c #989593",
"/. c #A48F81",
"(. c #A39486",
"). c #A99384",
"_. c #A3968A",
"`. c #A4998D",
"'. c #AB9C8D",
"]. c #B09785",
"[. c #A59C93",
"{. c #A99E92",
"}. c #ADA295",
"|. c #ABA39A",
" X c #B1A293",
".X c #B0A69A",
"XX c #B6A99D",
"oX c #B9AA9C",
"OX c #A8A5A3",
"+X c #B5ABA1",
"@X c #BAAEA2",
"#X c #B3AFAB",
"$X c #BBB0A6",
"%X c #BCB3AA",
"&X c #BDBDBC",
"*X c #B9B7B5",
"=X c #D3A788",
"-X c #C9AE9A",
";X c #C1B5AD",
":X c #C1B6AB",
">X c #CABEB1",
",X c #CDC6BF",
"<X c #C6C5C3",
"1X c #CFD0D2",
/* pixels */
"{ [..XD.D.`.k.D.{.+.[.@X~.D.K.%._ Q.J.) E ~ ! Y ) { _ P ` {.| | ",
"+.XX}.K.+.D.$.`._._ %.<X&XO.` m.~.{ m.P ] +.) ] {.}.F.I m.` P D.",
"z.L c.P [ %.{ c.K H *X&X%.`  . X@Xo.D.] @X<X%XP x.F.{ D.>X}.{ D.",
"{ K K $.x.}.$.n b.!.1XR.K.{.} | _ +.x.P #._.~.x.$.+.{.b._.{ H } ",
"M._ H._.x.x.n J +.>XOX` ' z.7 > O Y J.m.`.D.X.Y | %.D.T m | l.I ",
"Q L | @. .I m.&.^.<XX.m.!.1   !.R.. 6 J.Q.K.%.`.[.Q.}. .n k.~ n ",
"`.`.o.Q.$.%._ J #XOXP oXb.  7 ^.O.X O o.+.E.+.&.E.m.G.[ x.I J !.",
"D.+.P -X_.D %.b.*X#.| F.4   7 U R . . , G.~.F.J @.b.x.%.;X|.o.'.",
"b.E._ ..] Q.D.c.&X#. Xb.  X @ - d 8 & # k @.{.*Xm.K.L.z.D.W.+.[ ",
" XF.k.} 6 z.| P ` { L.K.L ( d.( 3 s 9.4.i.h.I.Y.v.H $. .J E.XXE.",
"b.@.! m ~._.P #.l.@.) l. X].-XU.o W T.i.N.z.q.V.C.s.G.XXF.Q.}.{ ",
"J.}.F.F.$XK.F.b.P.l.!.*.p.T.T.d.p.=X9.Q j.M.Z B.e.H.x.G.K.P &.{ ",
"W.(.@.x.L.G.Q.D.Q 9 K.^ t C 9.f.f.9.u V *.j.V.V.y.U.W.G { ) }.W.",
"z.H.{ x.P L.Q.$.E.4.s.B c u i v i y r c.E._ Z.V.t.r.` J.'.] ~.[.",
") ) { K.+.J.{ x.|./ l 3.0 y i u r p w u.{.F.L.A w.0.+. Xx.n b.F.",
"k.+.c.K K.oXQ.{ [ ..3.3.x k e b ; 2.;.;._.x.p.l.A.S.@.L $.D.4 $.",
") m ~ ] G $._.F.`.] x.I H N 1 5 2 >.,.1.u.3.d o.c.S.$.P `.x.+.{ ",
"}.Q.W { Q.b.P E.:X| L n ( z > 5 a :.;.p.-.H F.:Xb.L %.%.] F.'.m.",
"H.D.L H.`.K.| XXQ. .K.F.s.d > > a 5.;.a./.` K._.T P _.{.+.H.K.| ",
"%.P b.| | | {  .+.J [ R S < 5 S s :.=.3.{ W.+.%..XF.@.}.b.n.E.G.",
"D.P @.Q.+.}.x...H...F S h ' H.F s 6.=.q W '.+.Q.(.{.+.| ` !._.Q.",
"E.Q.%.n K.K.] [  .! U F ' ! ) b.f 6.=.<.W @.G _ n.L.{ G .X~.$.D ",
"%X'.] o.~.W.| J.`.x.D o X.%.W.oX! l 4./.$.J.@.F.+.W (.W.+.}.}.&.",
"x.E.E.b.!.F.{ $.}.L.! % : ] (.).#.> b.K.+.) { W.Q.z._.K.b.n.n.) ",
") Q.,X@.x._ *.F.} _ +.g : P ] h.j $ = { +Xx.F.z.k.@.M.W W.[.P | ",
" .n +.x.'.@.$.Q.x.P oXW n K.[.+.K % $ [ +XE.! X.H ) _ @.W D ] c.",
"! _.L.)  .@.P P P P k.c.G _ E.n.K.2 a b.K %.`.~._ {.'.c.+.{.+.H ",
"K.L.(._ $.Q.L _ z.n.| L Y E.%.D x.Q * { !.m.+XE._ c.| | %.@X[.W ",
"} H...{ n.W T @.j | H.J J.Q. .G.b.f % j W.#.X.[.*.E K.L.{ Q.K.J ",
"%. .H {.{.W '.(.+.+.L Q.Q.W ` `.}.P $ - * &.`.@X[._ L.L...J !.*.",
"{.`.b.n.D.] H.] b.(.J D.} E.!.| c.*.I P P ! &.%X~.Y { @.] ` Q.F.",
"Q.H.} P  .+.) _ { } %.` &.{.`.m.) ~.$XF.@.@._ +XF.W.}.+.) $XP K "
};
